<svg width="94" height="11" viewBox="0 0 94 11" fill="none" xmlns="http://www.w3.org/2000/svg">
<path d="M0.91 10V0.64H6.955V2.109H2.4765V4.4165H6.175V5.8855H2.4765V8.531H6.955V10H0.91ZM9.86449 10L12.8155 0.64H15.11L18.061 10H16.449L13.771 1.602H14.122L11.4765 10H9.86449ZM11.509 7.972V6.5095H16.423V7.972H11.509ZM21.2362 10V0.64H25.1037C25.1947 0.64 25.3117 0.644333 25.4547 0.652999C25.5977 0.657333 25.7298 0.670333 25.8512 0.692C26.3928 0.774333 26.8392 0.954166 27.1902 1.2315C27.5455 1.50883 27.8077 1.85983 27.9767 2.2845C28.15 2.70483 28.2367 3.17283 28.2367 3.6885C28.2367 4.45117 28.0438 5.10767 27.6582 5.658C27.2725 6.204 26.681 6.542 25.8837 6.672L25.2142 6.7305H22.8027V10H21.2362ZM26.6117 10L24.7657 6.191L26.3582 5.84L28.3862 10H26.6117ZM22.8027 5.268H25.0387C25.1253 5.268 25.2228 5.26367 25.3312 5.255C25.4395 5.24633 25.5392 5.229 25.6302 5.203C25.8902 5.138 26.0938 5.02317 26.2412 4.8585C26.3928 4.69383 26.499 4.5075 26.5597 4.2995C26.6247 4.0915 26.6572 3.88783 26.6572 3.6885C26.6572 3.48917 26.6247 3.2855 26.5597 3.0775C26.499 2.86517 26.3928 2.67667 26.2412 2.512C26.0938 2.34733 25.8902 2.2325 25.6302 2.1675C25.5392 2.1415 25.4395 2.12633 25.3312 2.122C25.2228 2.11333 25.1253 2.109 25.0387 2.109H22.8027V5.268ZM31.8182 10V0.64H35.6857C35.7767 0.64 35.8937 0.644333 36.0367 0.652999C36.1797 0.657333 36.3119 0.670333 36.4332 0.692C36.9749 0.774333 37.4212 0.954166 37.7722 1.2315C38.1275 1.50883 38.3897 1.85983 38.5587 2.2845C38.732 2.70483 38.8187 3.17283 38.8187 3.6885C38.8187 4.19983 38.732 4.66783 38.5587 5.0925C38.3854 5.51283 38.121 5.86167 37.7657 6.139C37.4147 6.41633 36.9705 6.59617 36.4332 6.6785C36.3119 6.69583 36.1775 6.70883 36.0302 6.7175C35.8872 6.72617 35.7724 6.7305 35.6857 6.7305H33.3847V10H31.8182ZM33.3847 5.268H35.6207C35.7074 5.268 35.8049 5.26367 35.9132 5.255C36.0215 5.24633 36.1212 5.229 36.2122 5.203C36.4722 5.138 36.6759 5.02317 36.8232 4.8585C36.9749 4.69383 37.081 4.5075 37.1417 4.2995C37.2067 4.0915 37.2392 3.88783 37.2392 3.6885C37.2392 3.48917 37.2067 3.2855 37.1417 3.0775C37.081 2.86517 36.9749 2.67667 36.8232 2.512C36.6759 2.34733 36.4722 2.2325 36.2122 2.1675C36.1212 2.1415 36.0215 2.12633 35.9132 2.122C35.8049 2.11333 35.7074 2.109 35.6207 2.109H33.3847V5.268ZM42.1209 10V0.64H43.6874V4.579H48.1204V0.64H49.6804V10H48.1204V6.048H43.6874V10H42.1209ZM57.4613 10.195C56.5253 10.195 55.7236 9.99133 55.0563 9.584C54.3889 9.17233 53.8754 8.60033 53.5158 7.868C53.1604 7.13567 52.9828 6.28633 52.9828 5.32C52.9828 4.35367 53.1604 3.50433 53.5158 2.772C53.8754 2.03967 54.3889 1.46983 55.0563 1.0625C55.7236 0.650833 56.5253 0.445 57.4613 0.445C58.3973 0.445 59.1989 0.650833 59.8663 1.0625C60.5379 1.46983 61.0514 2.03967 61.4068 2.772C61.7664 3.50433 61.9463 4.35367 61.9463 5.32C61.9463 6.28633 61.7664 7.13567 61.4068 7.868C61.0514 8.60033 60.5379 9.17233 59.8663 9.584C59.1989 9.99133 58.3973 10.195 57.4613 10.195ZM57.4613 8.7195C58.0896 8.72383 58.6118 8.58517 59.0278 8.3035C59.4481 8.02183 59.7623 7.62533 59.9703 7.114C60.1826 6.60267 60.2888 6.00467 60.2888 5.32C60.2888 4.63533 60.1826 4.04167 59.9703 3.539C59.7623 3.032 59.4481 2.63767 59.0278 2.356C58.6118 2.07433 58.0896 1.92917 57.4613 1.9205C56.8329 1.91617 56.3108 2.05483 55.8948 2.3365C55.4788 2.61817 55.1646 3.01467 54.9523 3.526C54.7443 4.03733 54.6403 4.63533 54.6403 5.32C54.6403 6.00467 54.7443 6.6005 54.9523 7.1075C55.1603 7.61017 55.4723 8.00233 55.8883 8.284C56.3086 8.56567 56.8329 8.71083 57.4613 8.7195ZM65.2401 10V0.64H66.8261L71.1681 7.2375V0.64H72.7541V10H71.1681L66.8261 3.4025V10H65.2401ZM76.5711 10V0.64H82.6161V2.109H78.1376V4.4165H81.8361V5.8855H78.1376V8.531H82.6161V10H76.5711ZM89.5513 10.195C88.8666 10.195 88.2491 10.0758 87.6988 9.8375C87.1528 9.59917 86.7021 9.259 86.3468 8.817C85.9958 8.37067 85.7726 7.842 85.6773 7.231L87.3023 6.984C87.4409 7.53867 87.7248 7.96767 88.1538 8.271C88.5871 8.57433 89.0854 8.726 89.6488 8.726C89.9824 8.726 90.2966 8.674 90.5913 8.57C90.8859 8.466 91.1243 8.31433 91.3063 8.115C91.4926 7.91567 91.5858 7.67083 91.5858 7.3805C91.5858 7.2505 91.5641 7.13133 91.5208 7.023C91.4774 6.91033 91.4124 6.81067 91.3258 6.724C91.2434 6.63733 91.1351 6.55933 91.0008 6.49C90.8708 6.41633 90.7191 6.3535 90.5458 6.3015L88.1278 5.5865C87.9198 5.52583 87.6944 5.44567 87.4518 5.346C87.2134 5.242 86.9859 5.10117 86.7693 4.9235C86.5569 4.7415 86.3814 4.51183 86.2428 4.2345C86.1084 3.95283 86.0413 3.60617 86.0413 3.1945C86.0413 2.59217 86.1929 2.08733 86.4963 1.68C86.8039 1.26833 87.2156 0.960666 87.7313 0.757C88.2513 0.553333 88.8276 0.453666 89.4603 0.458C90.1016 0.462333 90.6736 0.572833 91.1763 0.7895C91.6789 1.00183 92.0993 1.31167 92.4373 1.719C92.7753 2.12633 93.0136 2.61817 93.1523 3.1945L91.4688 3.487C91.3994 3.15767 91.2651 2.87817 91.0658 2.6485C90.8708 2.4145 90.6303 2.23683 90.3443 2.1155C90.0626 1.99417 89.7614 1.92917 89.4408 1.9205C89.1288 1.91617 88.8384 1.96383 88.5698 2.0635C88.3054 2.15883 88.0909 2.2975 87.9263 2.4795C87.7659 2.6615 87.6858 2.87383 87.6858 3.1165C87.6858 3.34617 87.7551 3.53467 87.8938 3.682C88.0324 3.825 88.2036 3.93983 88.4073 4.0265C88.6153 4.10883 88.8254 4.17817 89.0378 4.2345L90.7148 4.7025C90.9444 4.76317 91.2023 4.8455 91.4883 4.9495C91.7743 5.0535 92.0494 5.19867 92.3138 5.385C92.5781 5.57133 92.7948 5.81617 92.9638 6.1195C93.1371 6.42283 93.2238 6.8085 93.2238 7.2765C93.2238 7.76183 93.1219 8.18867 92.9183 8.557C92.7189 8.921 92.4481 9.22433 92.1058 9.467C91.7634 9.70967 91.3713 9.89167 90.9293 10.013C90.4916 10.1343 90.0323 10.195 89.5513 10.195Z" fill="white"/>
</svg>
