<svg width="106" height="11" viewBox="0 0 106 11" fill="none" xmlns="http://www.w3.org/2000/svg">
<path d="M0.91 10V0.64H2.4765V4.579H6.9095V0.64H8.4695V10H6.9095V6.048H2.4765V10H0.91ZM12.2918 10V0.64H18.3368V2.109H13.8583V4.4165H17.5568V5.8855H13.8583V8.531H18.3368V10H12.2918ZM21.2463 10L24.1973 0.64H26.4918L29.4428 10H27.8308L25.1528 1.602H25.5038L22.8583 10H21.2463ZM22.8908 7.972V6.5095H27.8048V7.972H22.8908ZM32.618 10V0.64H35.6015C35.6795 0.64 35.8333 0.642166 36.063 0.6465C36.297 0.650833 36.5223 0.666 36.739 0.692C37.48 0.787333 38.1062 1.05167 38.6175 1.485C39.1332 1.914 39.5232 2.46217 39.7875 3.1295C40.0518 3.79683 40.184 4.527 40.184 5.32C40.184 6.113 40.0518 6.84317 39.7875 7.5105C39.5232 8.17783 39.1332 8.72817 38.6175 9.1615C38.1062 9.5905 37.48 9.85267 36.739 9.948C36.5267 9.974 36.3035 9.98917 36.0695 9.9935C35.8355 9.99783 35.6795 10 35.6015 10H32.618ZM34.2105 8.5245H35.6015C35.7315 8.5245 35.8962 8.52017 36.0955 8.5115C36.2992 8.50283 36.479 8.48333 36.635 8.453C37.077 8.37067 37.4367 8.1735 37.714 7.8615C37.9913 7.5495 38.195 7.17033 38.325 6.724C38.4593 6.27767 38.5265 5.80967 38.5265 5.32C38.5265 4.813 38.4593 4.33633 38.325 3.89C38.1907 3.44367 37.9827 3.06883 37.701 2.7655C37.4237 2.46217 37.0683 2.26933 36.635 2.187C36.479 2.15233 36.2992 2.13283 36.0955 2.1285C35.8962 2.11983 35.7315 2.1155 35.6015 2.1155H34.2105V8.5245ZM43.7205 10V0.64H47.588C47.679 0.64 47.796 0.644333 47.939 0.652999C48.082 0.657333 48.2142 0.670333 48.3355 0.692C48.8772 0.774333 49.3235 0.954166 49.6745 1.2315C50.0299 1.50883 50.292 1.85983 50.461 2.2845C50.6344 2.70483 50.721 3.17283 50.721 3.6885C50.721 4.19983 50.6344 4.66783 50.461 5.0925C50.2877 5.51283 50.0234 5.86167 49.668 6.139C49.317 6.41633 48.8729 6.59617 48.3355 6.6785C48.2142 6.69583 48.0799 6.70883 47.9325 6.7175C47.7895 6.72617 47.6747 6.7305 47.588 6.7305H45.287V10H43.7205ZM45.287 5.268H47.523C47.6097 5.268 47.7072 5.26367 47.8155 5.255C47.9239 5.24633 48.0235 5.229 48.1145 5.203C48.3745 5.138 48.5782 5.02317 48.7255 4.8585C48.8772 4.69383 48.9834 4.5075 49.044 4.2995C49.109 4.0915 49.1415 3.88783 49.1415 3.6885C49.1415 3.48917 49.109 3.2855 49.044 3.0775C48.9834 2.86517 48.8772 2.67667 48.7255 2.512C48.5782 2.34733 48.3745 2.2325 48.1145 2.1675C48.0235 2.1415 47.9239 2.12633 47.8155 2.122C47.7072 2.11333 47.6097 2.109 47.523 2.109H45.287V5.268ZM54.0233 10V0.64H55.5898V4.579H60.0228V0.64H61.5828V10H60.0228V6.048H55.5898V10H54.0233ZM69.3636 10.195C68.4276 10.195 67.626 9.99133 66.9586 9.584C66.2913 9.17233 65.7778 8.60033 65.4181 7.868C65.0628 7.13567 64.8851 6.28633 64.8851 5.32C64.8851 4.35367 65.0628 3.50433 65.4181 2.772C65.7778 2.03967 66.2913 1.46983 66.9586 1.0625C67.626 0.650833 68.4276 0.445 69.3636 0.445C70.2996 0.445 71.1013 0.650833 71.7686 1.0625C72.4403 1.46983 72.9538 2.03967 73.3091 2.772C73.6688 3.50433 73.8486 4.35367 73.8486 5.32C73.8486 6.28633 73.6688 7.13567 73.3091 7.868C72.9538 8.60033 72.4403 9.17233 71.7686 9.584C71.1013 9.99133 70.2996 10.195 69.3636 10.195ZM69.3636 8.7195C69.992 8.72383 70.5141 8.58517 70.9301 8.3035C71.3505 8.02183 71.6646 7.62533 71.8726 7.114C72.085 6.60267 72.1911 6.00467 72.1911 5.32C72.1911 4.63533 72.085 4.04167 71.8726 3.539C71.6646 3.032 71.3505 2.63767 70.9301 2.356C70.5141 2.07433 69.992 1.92917 69.3636 1.9205C68.7353 1.91617 68.2131 2.05483 67.7971 2.3365C67.3811 2.61817 67.067 3.01467 66.8546 3.526C66.6466 4.03733 66.5426 4.63533 66.5426 5.32C66.5426 6.00467 66.6466 6.6005 66.8546 7.1075C67.0626 7.61017 67.3746 8.00233 67.7906 8.284C68.211 8.56567 68.7353 8.71083 69.3636 8.7195ZM77.1424 10V0.64H78.7284L83.0704 7.2375V0.64H84.6564V10H83.0704L78.7284 3.4025V10H77.1424ZM88.4735 10V0.64H94.5185V2.109H90.04V4.4165H93.7385V5.8855H90.04V8.531H94.5185V10H88.4735ZM101.454 10.195C100.769 10.195 100.151 10.0758 99.6011 9.8375C99.0551 9.59917 98.6044 9.259 98.2491 8.817C97.8981 8.37067 97.6749 7.842 97.5796 7.231L99.2046 6.984C99.3433 7.53867 99.6271 7.96767 100.056 8.271C100.489 8.57433 100.988 8.726 101.551 8.726C101.885 8.726 102.199 8.674 102.494 8.57C102.788 8.466 103.027 8.31433 103.209 8.115C103.395 7.91567 103.488 7.67083 103.488 7.3805C103.488 7.2505 103.466 7.13133 103.423 7.023C103.38 6.91033 103.315 6.81067 103.228 6.724C103.146 6.63733 103.037 6.55933 102.903 6.49C102.773 6.41633 102.621 6.3535 102.448 6.3015L100.03 5.5865C99.8221 5.52583 99.5968 5.44567 99.3541 5.346C99.1158 5.242 98.8883 5.10117 98.6716 4.9235C98.4593 4.7415 98.2838 4.51183 98.1451 4.2345C98.0108 3.95283 97.9436 3.60617 97.9436 3.1945C97.9436 2.59217 98.0953 2.08733 98.3986 1.68C98.7063 1.26833 99.1179 0.960666 99.6336 0.757C100.154 0.553333 100.73 0.453666 101.363 0.458C102.004 0.462333 102.576 0.572833 103.079 0.7895C103.581 1.00183 104.002 1.31167 104.34 1.719C104.678 2.12633 104.916 2.61817 105.055 3.1945L103.371 3.487C103.302 3.15767 103.167 2.87817 102.968 2.6485C102.773 2.4145 102.533 2.23683 102.247 2.1155C101.965 1.99417 101.664 1.92917 101.343 1.9205C101.031 1.91617 100.741 1.96383 100.472 2.0635C100.208 2.15883 99.9933 2.2975 99.8286 2.4795C99.6683 2.6615 99.5881 2.87383 99.5881 3.1165C99.5881 3.34617 99.6574 3.53467 99.7961 3.682C99.9348 3.825 100.106 3.93983 100.31 4.0265C100.518 4.10883 100.728 4.17817 100.94 4.2345L102.617 4.7025C102.847 4.76317 103.105 4.8455 103.391 4.9495C103.677 5.0535 103.952 5.19867 104.216 5.385C104.48 5.57133 104.697 5.81617 104.866 6.1195C105.039 6.42283 105.126 6.8085 105.126 7.2765C105.126 7.76183 105.024 8.18867 104.821 8.557C104.621 8.921 104.35 9.22433 104.008 9.467C103.666 9.70967 103.274 9.89167 102.832 10.013C102.394 10.1343 101.935 10.195 101.454 10.195Z" fill="white"/>
</svg>
