<svg width="44" height="11" viewBox="0 0 44 11" fill="none" xmlns="http://www.w3.org/2000/svg">
<path d="M0.91 10V0.64H2.4765V4.579H6.9095V0.64H8.4695V10H6.9095V6.048H2.4765V10H0.91ZM16.2503 10.195C15.3143 10.195 14.5127 9.99133 13.8453 9.584C13.178 9.17233 12.6645 8.60033 12.3048 7.868C11.9495 7.13567 11.7718 6.28633 11.7718 5.32C11.7718 4.35367 11.9495 3.50433 12.3048 2.772C12.6645 2.03967 13.178 1.46983 13.8453 1.0625C14.5127 0.650833 15.3143 0.445 16.2503 0.445C17.1863 0.445 17.988 0.650833 18.6553 1.0625C19.327 1.46983 19.8405 2.03967 20.1958 2.772C20.5555 3.50433 20.7353 4.35367 20.7353 5.32C20.7353 6.28633 20.5555 7.13567 20.1958 7.868C19.8405 8.60033 19.327 9.17233 18.6553 9.584C17.988 9.99133 17.1863 10.195 16.2503 10.195ZM16.2503 8.7195C16.8787 8.72383 17.4008 8.58517 17.8168 8.3035C18.2372 8.02183 18.5513 7.62533 18.7593 7.114C18.9717 6.60267 19.0778 6.00467 19.0778 5.32C19.0778 4.63533 18.9717 4.04167 18.7593 3.539C18.5513 3.032 18.2372 2.63767 17.8168 2.356C17.4008 2.07433 16.8787 1.92917 16.2503 1.9205C15.622 1.91617 15.0998 2.05483 14.6838 2.3365C14.2678 2.61817 13.9537 3.01467 13.7413 3.526C13.5333 4.03733 13.4293 4.63533 13.4293 5.32C13.4293 6.00467 13.5333 6.6005 13.7413 7.1075C13.9493 7.61017 14.2613 8.00233 14.6773 8.284C15.0977 8.56567 15.622 8.71083 16.2503 8.7195ZM24.0291 10V0.64H25.4396L28.6766 7.27L31.9136 0.64H33.3241V10H31.8616V4.0005L28.9886 10H28.3646L25.4981 4.0005V10H24.0291ZM37.1502 10V0.64H43.1952V2.109H38.7167V4.4165H42.4152V5.8855H38.7167V8.531H43.1952V10H37.1502Z" fill="white"/>
</svg>
