<svg width="80" height="11" viewBox="0 0 80 11" fill="none" xmlns="http://www.w3.org/2000/svg">
<path d="M4.3745 10.195C3.68983 10.195 3.07233 10.0758 2.522 9.8375C1.976 9.59917 1.52533 9.259 1.17 8.817C0.819 8.37067 0.595833 7.842 0.5005 7.231L2.1255 6.984C2.26417 7.53867 2.548 7.96767 2.977 8.271C3.41033 8.57433 3.90867 8.726 4.472 8.726C4.80567 8.726 5.11983 8.674 5.4145 8.57C5.70917 8.466 5.9475 8.31433 6.1295 8.115C6.31583 7.91567 6.409 7.67083 6.409 7.3805C6.409 7.2505 6.38733 7.13133 6.344 7.023C6.30067 6.91033 6.23567 6.81067 6.149 6.724C6.06667 6.63733 5.95833 6.55933 5.824 6.49C5.694 6.41633 5.54233 6.3535 5.369 6.3015L2.951 5.5865C2.743 5.52583 2.51767 5.44567 2.275 5.346C2.03667 5.242 1.80917 5.10117 1.5925 4.9235C1.38017 4.7415 1.20467 4.51183 1.066 4.2345C0.931667 3.95283 0.8645 3.60617 0.8645 3.1945C0.8645 2.59217 1.01617 2.08733 1.3195 1.68C1.62717 1.26833 2.03883 0.960666 2.5545 0.757C3.0745 0.553333 3.65083 0.453666 4.2835 0.458C4.92483 0.462333 5.49683 0.572833 5.9995 0.7895C6.50217 1.00183 6.9225 1.31167 7.2605 1.719C7.5985 2.12633 7.83683 2.61817 7.9755 3.1945L6.292 3.487C6.22267 3.15767 6.08833 2.87817 5.889 2.6485C5.694 2.4145 5.4535 2.23683 5.1675 2.1155C4.88583 1.99417 4.58467 1.92917 4.264 1.9205C3.952 1.91617 3.66167 1.96383 3.393 2.0635C3.12867 2.15883 2.91417 2.2975 2.7495 2.4795C2.58917 2.6615 2.509 2.87383 2.509 3.1165C2.509 3.34617 2.57833 3.53467 2.717 3.682C2.85567 3.825 3.02683 3.93983 3.2305 4.0265C3.4385 4.10883 3.64867 4.17817 3.861 4.2345L5.538 4.7025C5.76767 4.76317 6.0255 4.8455 6.3115 4.9495C6.5975 5.0535 6.87267 5.19867 7.137 5.385C7.40133 5.57133 7.618 5.81617 7.787 6.1195C7.96033 6.42283 8.047 6.8085 8.047 7.2765C8.047 7.76183 7.94517 8.18867 7.7415 8.557C7.54217 8.921 7.27133 9.22433 6.929 9.467C6.58667 9.70967 6.1945 9.89167 5.7525 10.013C5.31483 10.1343 4.8555 10.195 4.3745 10.195ZM11.4539 10V0.64H15.3214C15.4124 0.64 15.5294 0.644333 15.6724 0.652999C15.8154 0.657333 15.9476 0.670333 16.0689 0.692C16.6106 0.774333 17.0569 0.954166 17.4079 1.2315C17.7633 1.50883 18.0254 1.85983 18.1944 2.2845C18.3678 2.70483 18.4544 3.17283 18.4544 3.6885C18.4544 4.19983 18.3678 4.66783 18.1944 5.0925C18.0211 5.51283 17.7568 5.86167 17.4014 6.139C17.0504 6.41633 16.6063 6.59617 16.0689 6.6785C15.9476 6.69583 15.8133 6.70883 15.6659 6.7175C15.5229 6.72617 15.4081 6.7305 15.3214 6.7305H13.0204V10H11.4539ZM13.0204 5.268H15.2564C15.3431 5.268 15.4406 5.26367 15.5489 5.255C15.6573 5.24633 15.7569 5.229 15.8479 5.203C16.1079 5.138 16.3116 5.02317 16.4589 4.8585C16.6106 4.69383 16.7168 4.5075 16.7774 4.2995C16.8424 4.0915 16.8749 3.88783 16.8749 3.6885C16.8749 3.48917 16.8424 3.2855 16.7774 3.0775C16.7168 2.86517 16.6106 2.67667 16.4589 2.512C16.3116 2.34733 16.1079 2.2325 15.8479 2.1675C15.7569 2.1415 15.6573 2.12633 15.5489 2.122C15.4406 2.11333 15.3431 2.109 15.2564 2.109H13.0204V5.268ZM21.7567 10V0.64H27.8017V2.109H23.3232V4.4165H27.0217V5.8855H23.3232V8.531H27.8017V10H21.7567ZM30.7112 10L33.6622 0.64H35.9567L38.9077 10H37.2957L34.6177 1.602H34.9687L32.3232 10H30.7112ZM32.3557 7.972V6.5095H37.2697V7.972H32.3557ZM42.0829 10V0.64H43.6494V4.982L47.3869 0.64H49.3109L45.2874 5.229L49.5839 10H47.5949L43.6494 5.632V10H42.0829ZM52.4998 10V0.64H58.5448V2.109H54.0663V4.4165H57.7648V5.8855H54.0663V8.531H58.5448V10H52.4998ZM62.1043 10V0.64H65.9718C66.0628 0.64 66.1798 0.644333 66.3228 0.652999C66.4658 0.657333 66.598 0.670333 66.7193 0.692C67.261 0.774333 67.7073 0.954166 68.0583 1.2315C68.4137 1.50883 68.6758 1.85983 68.8448 2.2845C69.0182 2.70483 69.1048 3.17283 69.1048 3.6885C69.1048 4.45117 68.912 5.10767 68.5263 5.658C68.1407 6.204 67.5492 6.542 66.7518 6.672L66.0823 6.7305H63.6708V10H62.1043ZM67.4798 10L65.6338 6.191L67.2263 5.84L69.2543 10H67.4798ZM63.6708 5.268H65.9068C65.9935 5.268 66.091 5.26367 66.1993 5.255C66.3077 5.24633 66.4073 5.229 66.4983 5.203C66.7583 5.138 66.962 5.02317 67.1093 4.8585C67.261 4.69383 67.3672 4.5075 67.4278 4.2995C67.4928 4.0915 67.5253 3.88783 67.5253 3.6885C67.5253 3.48917 67.4928 3.2855 67.4278 3.0775C67.3672 2.86517 67.261 2.67667 67.1093 2.512C66.962 2.34733 66.7583 2.2325 66.4983 2.1675C66.4073 2.1415 66.3077 2.12633 66.1993 2.122C66.091 2.11333 65.9935 2.109 65.9068 2.109H63.6708V5.268ZM76.1509 10.195C75.4662 10.195 74.8487 10.0758 74.2984 9.8375C73.7524 9.59917 73.3017 9.259 72.9464 8.817C72.5954 8.37067 72.3722 7.842 72.2769 7.231L73.9019 6.984C74.0405 7.53867 74.3244 7.96767 74.7534 8.271C75.1867 8.57433 75.685 8.726 76.2484 8.726C76.582 8.726 76.8962 8.674 77.1909 8.57C77.4855 8.466 77.7239 8.31433 77.9059 8.115C78.0922 7.91567 78.1854 7.67083 78.1854 7.3805C78.1854 7.2505 78.1637 7.13133 78.1204 7.023C78.077 6.91033 78.012 6.81067 77.9254 6.724C77.843 6.63733 77.7347 6.55933 77.6004 6.49C77.4704 6.41633 77.3187 6.3535 77.1454 6.3015L74.7274 5.5865C74.5194 5.52583 74.294 5.44567 74.0514 5.346C73.813 5.242 73.5855 5.10117 73.3689 4.9235C73.1565 4.7415 72.981 4.51183 72.8424 4.2345C72.708 3.95283 72.6409 3.60617 72.6409 3.1945C72.6409 2.59217 72.7925 2.08733 73.0959 1.68C73.4035 1.26833 73.8152 0.960666 74.3309 0.757C74.8509 0.553333 75.4272 0.453666 76.0599 0.458C76.7012 0.462333 77.2732 0.572833 77.7759 0.7895C78.2785 1.00183 78.6989 1.31167 79.0369 1.719C79.3749 2.12633 79.6132 2.61817 79.7519 3.1945L78.0684 3.487C77.999 3.15767 77.8647 2.87817 77.6654 2.6485C77.4704 2.4145 77.2299 2.23683 76.9439 2.1155C76.6622 1.99417 76.361 1.92917 76.0404 1.9205C75.7284 1.91617 75.438 1.96383 75.1694 2.0635C74.905 2.15883 74.6905 2.2975 74.5259 2.4795C74.3655 2.6615 74.2854 2.87383 74.2854 3.1165C74.2854 3.34617 74.3547 3.53467 74.4934 3.682C74.632 3.825 74.8032 3.93983 75.0069 4.0265C75.2149 4.10883 75.425 4.17817 75.6374 4.2345L77.3144 4.7025C77.544 4.76317 77.8019 4.8455 78.0879 4.9495C78.3739 5.0535 78.649 5.19867 78.9134 5.385C79.1777 5.57133 79.3944 5.81617 79.5634 6.1195C79.7367 6.42283 79.8234 6.8085 79.8234 7.2765C79.8234 7.76183 79.7215 8.18867 79.5179 8.557C79.3185 8.921 79.0477 9.22433 78.7054 9.467C78.363 9.70967 77.9709 9.89167 77.5289 10.013C77.0912 10.1343 76.6319 10.195 76.1509 10.195Z" fill="white"/>
</svg>
